# File created by Blade
# Date/Time:  Thu Sep 25 19:26:26 2014
# Frame Rate: 120.000 fps
#------------------------------------------------------
:FULLY-SPECIFIED
:DEGREES
727
root 0.325881 31.807182 -12.373763 113.403948 9.330519 7.092207
Spine 44.005833 -0.112146 15.878800
Head 11.867431 -18.882235 -2.672670
LeftShoulder 4.568051 -28.176869 45.190786
LeftArm 28.278480 -40.646724 -25.849746
LeftForeArm 64.470635 -0.000000 76.303748
LeftHand -40.592149 -0.000000 43.296165
LeftHandThumb1 -26.253704 0.000000 33.147579
RightShoulder 9.450858 67.652420 -42.341764
RightArm 0.497603 20.875631 40.990230
RightForeArm -51.480924 0.000000 70.578399
RightHand -9.535126 -0.000000 -60.895645
RightHandThumb1 -24.326973 -0.000000 -32.862282
LeftUpLeg -118.815716 2.453228 -8.329668
LeftLeg -1.808835 -0.000000 0.000000
LeftFoot 3.761954 3.209452 -26.455618
LeftToeBase 9.508161 -0.000000 -0.000000
RightUpLeg -120.425618 -17.200151 25.596048
RightLeg -0.143730 -0.000000 0.000000
RightFoot 3.863422 -13.420414 15.497359
RightToeBase 3.506354 -0.000000 -0.000000
728
root 0.325663 31.806554 -12.377625 113.344644 9.355412 7.084819
Spine 44.072814 -0.166817 15.868336
Head 11.742901 -18.829813 -2.637327
LeftShoulder 4.543211 -28.204930 45.200456
LeftArm 28.223076 -40.614406 -25.798913
LeftForeArm 64.472400 0.000000 76.232563
LeftHand -40.558136 -0.000000 43.424848
LeftHandThumb1 -26.253704 0.000000 33.147579
RightShoulder 9.469034 67.711661 -42.349566
RightArm 0.523162 20.826639 40.997107
RightForeArm -51.438892 -0.000000 70.511850
RightHand -9.543499 -0.000000 -60.944601
RightHandThumb1 -24.326973 -0.000000 -32.862282
LeftUpLeg -118.777367 2.444467 -8.356798
LeftLeg -1.799695 -0.000000 0.000000
LeftFoot 3.784044 3.170548 -26.416384
LeftToeBase 9.517776 -0.000000 -0.000000
RightUpLeg -120.365069 -17.225519 25.569113
RightLeg -0.131077 -0.000000 0.000000
RightFoot 3.855021 -13.447161 15.502760
RightToeBase 3.500907 -0.000000 -0.000000
729
root 0.325734 31.806536 -12.383154 113.293984 9.377172 7.069024
Spine 44.115061 -0.228194 15.836510
Head 11.646758 -18.757500 -2.621041
LeftShoulder 4.508992 -28.139809 45.193444
LeftArm 28.217817 -40.622138 -25.729929
LeftForeArm 64.435906 -0.000000 76.147851
LeftHand -40.608041 -0.000000 43.525624
LeftHandThumb1 -26.253704 0.000000 33.147579
RightShoulder 9.545861 67.789615 -42.307542
RightArm 0.530979 20.760143 41.010949
RightForeArm -51.396688 -0.000000 70.444559
RightHand -9.509272 -0.000000 -60.935502
RightHandThumb1 -24.326973 -0.000000 -32.862282
LeftUpLeg -118.753086 2.448893 -8.375348
LeftLeg -1.786895 -0.000000 0.000000
LeftFoot 3.799442 3.147437 -26.389980
LeftToeBase 9.519423 -0.000000 -0.000000
RightUpLeg -120.318702 -17.231491 25.550768
RightLeg -0.118689 -0.000000 0.000000
RightFoot 3.861806 -13.474666 15.492851
RightToeBase 3.510843 -0.000000 -0.000000
730
root 0.326706 31.806422 -12.388469 113.244010 9.399557 7.068474
Spine 44.157693 -0.303694 15.818925
Head 11.545381 -18.693475 -2.641608
LeftShoulder 4.454353 -28.045360 45.176466
LeftArm 28.259392 -40.646583 -25.679215
LeftForeArm 64.380360 -0.000000 76.057467
LeftHand -40.556051 -0.000000 43.629600
LeftHandThumb1 -26.253704 0.000000 33.147579
RightShoulder 9.579045 67.877828 -42.315812
RightArm 0.542613 20.718130 41.054105
RightForeArm -51.391693 -0.000000 70.369276
RightHand -9.534341 -0.000000 -60.967433
RightHandThumb1 -24.326973 -0.000000 -32.862282
LeftUpLeg -118.725568 2.438349 -8.382254
LeftLeg -1.768617 -0.000000 0.000000
LeftFoot 3.806167 3.139312 -26.380969
LeftToeBase 9.514455 -0.000000 -0.000000
RightUpLeg -120.282925 -17.243211 25.553463
RightLeg -0.104113 -0.000000 0.000000
RightFoot 3.875930 -13.478462 15.488183
RightToeBase 3.507940 -0.000000 -0.000000
731
root 0.326836 31.806369 -12.393631 113.191371 9.420810 7.057731
Spine 44.199119 -0.351056 15.788998
Head 11.451471 -18.650089 -2.616249
LeftShoulder 4.411155 -28.011902 45.168145
LeftArm 28.291575 -40.619302 -25.624232
LeftForeArm 64.321540 -0.000000 75.960443
LeftHand -40.518471 -0.000000 43.709980
LeftHandThumb1 -26.253704 0.000000 33.147579
RightShoulder 9.626946 67.932296 -42.286869
RightArm 0.561226 20.671624 41.072645
RightForeArm -51.357978 -0.000000 70.289852
RightHand -9.537566 -0.000000 -60.982511
RightHandThumb1 -24.326973 -0.000000 -32.862282
LeftUpLeg -118.695809 2.452773 -8.382811
LeftLeg -1.760345 -0.000000 0.000000
LeftFoot 3.832989 3.118677 -26.373943
LeftToeBase 9.497928 -0.000000 -0.000000
RightUpLeg -120.237192 -17.249459 25.541131
RightLeg -0.092187 -0.000000 0.000000
RightFoot 3.895853 -13.506616 15.415342
RightToeBase 3.523604 -0.000000 -0.000000
732
root 0.326086 31.806073 -12.398522 113.136812 9.448755 7.043543
Spine 44.244976 -0.406023 15.754447
Head 11.364808 -18.604968 -2.634791
LeftShoulder 4.341324 -27.924896 45.146895
LeftArm 28.358246 -40.614605 -25.556334
LeftForeArm 64.271844 -0.000000 75.855587
LeftHand -40.479554 -0.000000 43.752271
LeftHandThumb1 -26.253704 0.000000 33.147579
RightShoulder 9.694033 68.010057 -42.252847
RightArm 0.566544 20.628964 41.100594
RightForeArm -51.331440 -0.000000 70.198986
RightHand -9.475535 -0.000000 -61.009472
RightHandThumb1 -24.326973 -0.000000 -32.862282
LeftUpLeg -118.663217 2.475831 -8.372762
LeftLeg -1.754355 -0.000000 0.000000
LeftFoot 3.848823 3.104329 -26.380865
LeftToeBase 9.514959 -0.000000 -0.000000
RightUpLeg -120.186867 -17.246260 25.535904
RightLeg -0.082456 -0.000000 0.000000
RightFoot 3.894093 -13.533674 15.392299
RightToeBase 3.545749 -0.000000 -0.000000
733
root 0.326033 31.805714 -12.403973 113.087774 9.473802 7.031894
Spine 44.268496 -0.438496 15.720956
Head 11.312558 -18.606007 -2.636637
LeftShoulder 4.321486 -27.877274 45.145013
LeftArm 28.367117 -40.595527 -25.486588
LeftForeArm 64.206912 0.000000 75.793504
LeftHand -40.444215 -0.000000 43.718811
LeftHandThumb1 -26.253704 0.000000 33.147579
RightShoulder 9.802919 68.050710 -42.162803
RightArm 0.558050 20.590936 41.103726
RightForeArm -51.301031 -0.000000 70.131434
RightHand -9.492754 0.000000 -60.992569
RightHandThumb1 -24.326973 -0.000000 -32.862282
LeftUpLeg -118.636223 2.496129 -8.355782
LeftLeg -1.747772 -0.000000 0.000000
LeftFoot 3.853137 3.115694 -26.364157
LeftToeBase 9.502257 -0.000000 -0.000000
RightUpLeg -120.147110 -17.241760 25.543275
RightLeg -0.073123 -0.000000 0.000000
RightFoot 3.911234 -13.539971 15.371948
RightToeBase 3.521746 -0.000000 -0.000000
734
root 0.326874 31.804628 -12.408849 113.029665 9.491892 7.026471
Spine 44.305627 -0.487818 15.677436
Head 11.271050 -18.573568 -2.632895
LeftShoulder 4.272983 -27.851439 45.166960
LeftArm 28.381862 -40.544709 -25.448430
LeftForeArm 64.155919 -0.000000 75.716356
LeftHand -40.440486 -0.000000 43.792142
LeftHandThumb1 -26.253704 0.000000 33.147579
RightShoulder 9.943019 68.113214 -42.048026
RightArm 0.539536 20.554657 41.097207
RightForeArm -51.263260 -0.000000 70.047313
RightHand -9.450155 -0.000000 -61.043171
RightHandThumb1 -24.326973 -0.000000 -32.862282
LeftUpLeg -118.599049 2.512004 -8.340402
LeftLeg -1.734819 -0.000000 0.000000
LeftFoot 3.877356 3.090052 -26.420864
LeftToeBase 9.389882 -0.000000 -0.000000
RightUpLeg -120.104318 -17.242074 25.562029
RightLeg -0.071539 -0.000000 0.000000
RightFoot 3.923765 -13.532708 15.352051
RightToeBase 3.547810 -0.000000 -0.000000
735
root 0.327143 31.804085 -12.414815 112.987818 9.513853 7.024146
Spine 44.314069 -0.496506 15.661446
Head 11.239670 -18.611513 -2.597209
LeftShoulder 4.249982 -27.788182 45.159774
LeftArm 28.495183 -40.531415 -25.434789
LeftForeArm 64.110056 -0.000000 75.602048
LeftHand -40.380281 -0.000000 43.879067
LeftHandThumb1 -26.253704 0.000000 33.147579
RightShoulder 9.985489 68.129493 -42.009895
RightArm 0.538628 20.526470 41.109848
RightForeArm -51.245212 -0.000000 69.951945
RightHand -9.452056 -0.000000 -61.108917
RightHandThumb1 -24.326973 -0.000000 -32.862282
LeftUpLeg -118.574576 2.526837 -8.307247
LeftLeg -1.727032 -0.000000 0.000000
LeftFoot 3.857684 3.131973 -26.335769
LeftToeBase 9.470187 -0.000000 -0.000000
RightUpLeg -120.072689 -17.257366 25.551931
RightLeg -0.055049 -0.000000 0.000000
RightFoot 3.936091 -13.550221 15.330481
RightToeBase 3.526880 -0.000000 -0.000000
736
root 0.327037 31.803147 -12.420118 112.932113 9.544690 7.016557
Spine 44.344777 -0.506241 15.643376
Head 11.199127 -18.634204 -2.573273
LeftShoulder 4.216682 -27.732208 45.171789
LeftArm 28.587813 -40.513673 -25.416968
LeftForeArm 64.091128 -0.000000 75.493136
LeftHand -40.385178 -0.000000 43.934724
LeftHandThumb1 -26.253704 0.000000 33.147579
RightShoulder 10.075780 68.157302 -41.940763
RightArm 0.503343 20.501246 41.093728
RightForeArm -51.195178 0.000000 69.871955
RightHand -9.417483 -0.000000 -61.162786
RightHandThumb1 -24.326973 -0.000000 -32.862282
LeftUpLeg -118.543203 2.557165 -8.272940
LeftLeg -1.712751 -0.000000 0.000000
LeftFoot 3.864174 3.136231 -26.335849
LeftToeBase 9.453974 -0.000000 -0.000000
RightUpLeg -120.025603 -17.264652 25.558661
RightLeg -0.043772 -0.000000 0.000000
RightFoot 3.938331 -13.562627 15.350891
RightToeBase 3.543313 -0.000000 -0.000000
737
root 0.327943 31.802569 -12.426125 112.886048 9.570225 7.019146
Spine 44.364434 -0.530193 15.635705
Head 11.149062 -18.639265 -2.586079
LeftShoulder 4.181329 -27.703903 45.175582
LeftArm 28.664313 -40.472768 -25.397722
LeftForeArm 64.081428 -0.000000 75.394893
LeftHand -40.353126 -0.000000 43.938944
LeftHandThumb1 -26.253704 0.000000 33.147579
RightShoulder 10.087078 68.166493 -41.946580
RightArm 0.516137 20.470176 41.115641
RightForeArm -51.161444 -0.000000 69.780962
RightHand -9.449064 -0.000000 -61.197111
RightHandThumb1 -24.326973 -0.000000 -32.862282
LeftUpLeg -118.513630 2.573297 -8.234640
LeftLeg -1.707772 -0.000000 0.000000
LeftFoot 3.861376 3.152247 -26.345200
LeftToeBase 9.499418 -0.000000 -0.000000
RightUpLeg -119.999329 -17.279639 25.570375
RightLeg -0.022465 -0.000000 0.000000
RightFoot 3.942754 -13.560637 15.349096
RightToeBase 3.528137 -0.000000 -0.000000
738
root 0.327839 31.801935 -12.432185 112.836395 9.604288 7.016883
Spine 44.392090 -0.549609 15.632659
Head 11.080572 -18.633628 -2.604995
LeftShoulder 4.143672 -27.625477 45.171397
LeftArm 28.771154 -40.473849 -25.373466
LeftForeArm 64.034934 -0.000000 75.285969
LeftHand -40.339184 -0.000000 44.022434
LeftHandThumb1 -26.253704 0.000000 33.147579
RightShoulder 10.108665 68.165277 -41.949079
RightArm 0.531097 20.448477 41.126342
RightForeArm -51.104619 -0.000000 69.684552
RightHand -9.449306 0.000000 -61.275382
RightHandThumb1 -24.326973 -0.000000 -32.862282
LeftUpLeg -118.496056 2.589855 -8.202065
LeftLeg -1.676195 -0.000000 0.000000
LeftFoot 3.865422 3.160394 -26.350660
LeftToeBase 9.471767 -0.000000 -0.000000
RightUpLeg -119.957703 -17.297176 25.567805
RightLeg -0.003199 -0.000000 0.000000
RightFoot 3.939659 -13.583660 15.376328
RightToeBase 3.525925 -0.000000 -0.000000
